<svg width="2000" height="1500" xmlns="http://www.w3.org/2000/svg" data-name="Layer 1">
 <g id="Layer_1">
  <title>Layer 1</title>
  <g stroke="null">
   <g stroke="null" id="svg_1">
    <title stroke="null">Layer 1</title>
    <ellipse stroke="null" fill="#bf005f" stroke-width="10" cx="977.33711" cy="581.82548" id="svg_5" rx="563.50374" ry="481.47088"/>
    <ellipse stroke="null" fill="#ffaad4" stroke-width="10" cx="1279.65832" cy="894.39327" id="svg_4" rx="563.50374" ry="481.47088"/>
    <ellipse stroke="null" fill="#ff007f" stroke-width="10" cx="1439.42933" cy="488.63756" id="svg_3" rx="499.40399" ry="481.47088"/>
    <ellipse stroke="null" fill="#bf005f" stroke-width="10" cx="1564.75871" cy="1286.55902" id="svg_2" rx="219.0872" ry="209.6728"/>
   </g>
  </g>
  <g stroke="null">
   <title stroke="null">Mobile_application</title>
   <path stroke="null" fill="#3f3d56" transform="translate(-160.25 -159.325)" d="m1156.17652,1591.41642q-47.31475,-7.4071 -90.98503,-12.60062l11.21101,-22.42211c-3.89142,-1.29714 -20.75422,11.67425 -20.75422,11.67425l14.26852,-64.85692c-19.45708,2.59428 -28.53705,68.74834 -28.53705,68.74834l-22.05135,-22.05135l10.85491,24.96619c-89.08913,-9.36102 -165.96469,-12.28236 -230.58687,-11.61233l9.59553,-19.19098c-3.89142,-1.29714 -20.75422,11.67425 -20.75422,11.67425l14.26852,-64.85692c-19.45708,2.59428 -28.53705,68.74834 -28.53705,68.74834l-22.05135,-22.05135l11.49706,26.44328a1294.35176,1294.35176 0 0 0 -132.33741,10.65711c9.57487,-29.82871 43.01205,-58.5032 43.01205,-58.5032c-25.71001,7.99865 -39.08556,21.02973 -46.00859,33.10894a520.88021,520.88021 0 0 1 27.84865,-180.33413s-51.88554,116.74246 -44.10271,194.57077l0.9875,13.82501c-45.13961,7.04187 -67.79013,14.06347 -67.79013,14.06347l610.95221,0z"/>
   <path stroke="null" fill="#3f3d56" transform="translate(-160.25 -159.325)" d="m1275.08826,1430.7473a15.56566,15.56566 0 1 1 15.56566,-15.56566a15.5835,15.5835 0 0 1 -15.56566,15.56566zm0,-28.53705a12.97138,12.97138 0 1 0 12.97138,12.97138a12.98583,12.98583 0 0 0 -12.97138,-12.97138z"/>
   <path stroke="null" fill="#3f3d56" transform="translate(-160.25 -159.325)" d="m1399.38998,1589.37419l-25.607,0l0,-25.607l25.607,0l0,25.607zm-23.63724,-1.96977l21.66747,0l0,-21.6674l-21.66747,0l0,21.6674z"/>
   <path stroke="null" fill="#3f3d56" transform="translate(-160.25 -159.325)" d="m532.43954,1590.77527l-17.4661,-18.72576l18.72579,-17.46615l17.46609,18.72576l-18.72578,17.46615zm-14.68214,-18.62893l14.779,15.84488l15.84487,-14.779l-14.77896,-15.84488l-15.84491,14.779z"/>
   <rect stroke="null" fill="#3f3d56" height="2.59428" width="1112.72122" y="1381.2622" x="142.36211"/>
   <path stroke="null" fill="#3f3d56" transform="translate(-160.25 -159.325)" d="m1040.0502,1010.8295l0,85.19605a2.97841,2.97841 0 0 1 -2.97045,2.97045l-2.11419,0l0,443.81592a46.31044,46.31044 0 0 1 -46.30793,46.30784l-277.31516,0a46.29936,46.29936 0 0 1 -46.29495,-46.30784l0,-428.25026l-1.53062,0a2.09825,2.09825 0 0 1 -2.10136,-2.08839l0,-48.48704a2.10099,2.10099 0 0 1 2.10136,-2.10136l1.53062,0l0,-18.26371l-1.54363,0a2.20056,2.20056 0 0 1 -2.19209,-2.20514l0,-47.82549a2.19777,2.19777 0 0 1 2.19209,-2.19216l1.54359,0l0,-24.931l-1.56954,0a1.94311,1.94311 0 0 1 -1.94571,-1.94571l0,-26.09843a1.95428,1.95428 0 0 1 1.94571,-1.95868l1.56954,0l0,-52.84542a46.29664,46.29664 0 0 1 46.29495,-46.29487l277.31515,0a46.30773,46.30773 0 0 1 46.30793,46.29487l0,124.23992l2.11424,0a2.97835,2.97835 0 0 1 2.97045,2.97045z"/>
   <rect stroke="null" fill="#e6e8ec" rx="2.54189" height="10.48921" width="51.6565" y="654.40448" x="607.13496"/>
   <circle stroke="null" fill="#e6e8ec" r="5.94953" cy="659.64907" cx="672.55149"/>
   <path stroke="null" fill="#f83292" transform="translate(-160.25 -159.325)" d="m1012.79083,892.77759l0,653.87452a29.28939,29.28939 0 0 1 -10.32522,22.3497a29.36968,29.36968 0 0 1 -19.05496,7.01752l-265.45938,0a29.29805,29.29805 0 0 1 -13.56807,-3.3077a27.44147,27.44147 0 0 1 -2.8537,-1.68628a29.40398,29.40398 0 0 1 -12.95841,-24.37323l0,-653.87452a29.37889,29.37889 0 0 1 29.38019,-29.38019l39.73135,0l0,5.09775a24.19183,24.19183 0 0 0 24.19163,24.19163l135.00617,0a24.19175,24.19175 0 0 0 24.19163,-24.19163l0,-5.09775l42.3386,0a29.37064,29.37064 0 0 1 29.38019,29.38019z"/>
   <path stroke="null" opacity="0.3" fill="#fff" transform="translate(-160.25 -159.325)" d="m1012.79083,1453.05061l0,93.60151a29.28939,29.28939 0 0 1 -10.32522,22.3497a29.36968,29.36968 0 0 1 -19.05496,7.01752l-265.45938,0a29.29805,29.29805 0 0 1 -13.56807,-3.3077a27.44147,27.44147 0 0 1 -2.8537,-1.68628a29.40398,29.40398 0 0 1 -12.95841,-24.37323l0,-93.5626a242.5267,242.5267 0 0 1 324.21976,-0.03891z"/>
   <path stroke="null" opacity="0.3" fill="#fff" transform="translate(-160.25 -159.325)" d="m997.00466,1572.68574a29.06837,29.06837 0 0 1 -13.59401,3.33365l-265.45938,0a29.29805,29.29805 0 0 1 -13.56807,-3.3077a158.46011,158.46011 0 0 1 292.62146,-0.02594z"/>
   <path stroke="null" opacity="0.3" fill="#fff" transform="translate(-160.25 -159.325)" d="m939.23011,1574.25469a17.58995,17.58995 0 0 1 -8.22605,2.01727l-160.63599,0a17.72883,17.72883 0 0 1 -8.21034,-2.00161a95.88809,95.88809 0 0 1 177.07238,-0.01566z"/>
   <path stroke="null" fill="#fff" transform="translate(-160.25 -159.325)" d="m918.21115,1116.53393c-26.62871,0 -55.85233,-5.07075 -78.66626,-22.1812c-31.76342,-23.82226 -70.89736,-22.55109 -98.13283,-17.28843a213.8499,213.8499 0 0 0 -52.24149,17.40111l-1.19961,-2.3004a216.56644,216.56644 0 0 1 52.8812,-17.63487c27.77067,-5.37477 67.70645,-6.65924 100.24955,17.74762c60.96487,45.72349 170.12971,4.65716 171.22417,4.2385l0.92979,2.42199a314.36773,314.36773 0 0 1 -63.1785,15.38009a241.52932,241.52932 0 0 1 -31.86602,2.21558z"/>
   <path stroke="null" opacity="0.3" fill="#fff" transform="translate(-160.25 -159.325)" d="m688.55811,1093.31525s89.50255,-21.67815 151.7652,8.00312s172.51941,-0.22029 172.51941,-0.22029"/>
   <path stroke="null" opacity="0.3" fill="#fff" transform="translate(-160.25 -159.325)" d="m773.05514,1126.9902a170.51632,170.51632 0 0 1 -32.20298,-3.21561a216.56676,216.56676 0 0 1 -52.8812,-17.6349l1.19961,-2.3004a213.84925,213.84925 0 0 0 52.24149,17.40111c27.23421,5.26202 66.36878,6.53383 98.13283,-17.28842c32.5146,-24.38596 78.05822,-24.31755 110.53228,-19.96567a314.36825,314.36825 0 0 1 63.1785,15.38008l-0.92979,2.422c-1.09572,-0.41992 -110.25807,-41.4869 -171.22417,4.2385c-21.34065,16.00591 -45.86285,20.96329 -68.04657,20.96329z"/>
   <path stroke="null" opacity="0.3" fill="#fff" transform="translate(-160.25 -159.325)" d="m773.49603,1116.54469c-44.92546,0 -84.8207,-16.11733 -85.41916,-16.36371l0.98806,-2.3992c0.88798,0.36609 89.61718,36.18941 150.59789,0.08361c62.03527,-36.73474 172.39717,-3.9446 173.50431,-3.60894l-0.75244,2.4828c-1.09572,-0.33189 -110.3771,-32.79328 -171.43065,3.35812c-20.8354,12.33733 -44.80397,16.44731 -67.488,16.44731z"/>
   <path stroke="null" opacity="0.3" fill="#fff" transform="translate(-160.25 -159.325)" d="m688.57108,1096.98637s89.48958,29.68128 151.75223,0s172.46753,-2.80453 172.46753,-2.80453"/>
   <path stroke="null" fill="#ffb8b8" transform="translate(-160.25 -159.325)" d="m1035.89174,1176.3962l0,37.81519s3.02523,42.35304 19.66391,63.52955c0,0 27.22694,38.5715 31.00847,30.25216l-4.65731,-27.38936l-15.76289,-14.96366l-8.31935,-46.89085l-2.26892,-42.35302l-19.66391,0z"/>
   <polygon stroke="null" fill="#ffb8b8" points="995.1679890155792,1311.5791416168213 995.1679890155792,1339.5622959136963 972.4796345233917,1347.8821201324463 972.4796345233917,1315.3603916168213 995.1679890155792,1311.5791416168213 "/>
   <polygon stroke="null" fill="#ffb8b8" points="949.0339558124542,1308.5542392730713 964.1596882343292,1342.5873203277588 942.9840290546417,1351.6633701324463 938.4453327655792,1318.3866367340088 949.0339558124542,1308.5542392730713 "/>
   <path stroke="null" fill="#2f2e41" transform="translate(-160.25 -159.325)" d="m1194.7156,1254.29552s30.25216,273.02576 18.9076,273.78207s-33.27737,15.12609 -33.27737,5.29413s-17.395,-137.64734 -17.395,-137.64734l-16.63868,-65.79846l0,90.7565l17.39499,102.85736s-16.63869,21.93281 -28.73956,9.07565l-25.71434,-100.58844s-34.03372,-152.77343 -32.52106,-164.87429c0,0 77.89931,-66.55476 117.98343,-12.85717z"/>
   <path stroke="null" fill="#2f2e41" transform="translate(-160.25 -159.325)" d="m1188.66517,1547.74149s6.05044,-12.85724 19.66391,-4.53782l11.34457,13.61347s29.24828,24.22217 8.49406,29.41072c-21.39151,5.34788 -34.20841,-0.34148 -34.20841,-0.34148s-3.78152,-2.2689 -6.80673,-2.2689s-9.83196,-5.29413 -9.83196,-6.80675s2.26892,-28.31293 2.26892,-28.31293a4.76915,4.76915 0 0 1 5.29413,0.7563c2.26892,2.26892 3.78152,-1.51261 3.78152,-1.51261z"/>
   <path stroke="null" fill="#2f2e41" transform="translate(-160.25 -159.325)" d="m1144.04323,1543.20367s14.36978,-11.34457 21.17651,1.51261c0,0 4.28575,1.51261 4.78993,0s4.28575,-2.26892 4.28575,6.05042s4.10688,29.06925 0.32536,29.82555s-7.56303,3.02523 -6.80673,6.05044s-4.10688,3.45183 -21.50187,2.69553s-18.1513,-7.56304 -18.1513,-7.56304s0,-9.83195 4.53782,-15.12607s11.34454,-23.44543 11.34454,-23.44543z"/>
   <path stroke="null" fill="#ffb8b8" transform="translate(-160.25 -159.325)" d="m1116.05998,1047.8245s-3.78152,27.98326 20.4202,37.8152s-53.69764,42.35304 -61.26063,23.44543s1.51262,-24.95803 1.51262,-24.95803s7.56303,-7.56304 0.7563,-27.98325l38.57151,-8.31935z"/>
   <circle stroke="null" fill="#ffb8b8" r="33.27733" cy="827.54481" cx="883.99181"/>
   <path stroke="null" fill="#f2f2f2" transform="translate(-160.25 -159.325)" d="m1130.42976,1094.71536s-22.68913,12.10086 -44.62194,3.02523s-21.17652,30.25216 -21.17652,30.25216l11.34457,29.49585l78.65562,-7.56304l-5.29413,-45.37824l-18.9076,-9.83196z"/>
   <path stroke="null" fill="#3f3d56" transform="translate(-160.25 -159.325)" d="m1119.15708,1068.837a27.45573,27.45573 0 0 1 18.83575,14.5338l36.3026,11.34455l9.07565,12.85717l-10.58826,93.0254s19.66391,18.9076 19.66391,29.49586s24.20172,46.89084 12.10086,42.35302s-34.03368,-20.42022 -34.03368,-20.42022s-55.21019,2.26892 -72.60518,17.395s-24.20174,10.58826 -24.20174,10.58826s-18.1513,-78.65562 -18.9076,-90.7565s-21.93282,-84.70605 -21.93282,-84.70605l37.8152,-21.17651l9.63175,-10.92851l26.67085,42.69328l24.20168,-29.49585s-11.9571,-9.4037 -12.02897,-16.80272z"/>
   <path stroke="null" fill="#ffb8b8" transform="translate(-160.25 -159.325)" d="m1194.7156,1165.80793l4.53782,24.20174s20.42022,75.63041 17.39499,101.34474c0,0 2.26892,57.47911 -10.58826,50.67238s-6.05042,-48.40346 -6.05042,-48.40346l-18.1513,-74.8741l-9.83196,-43.86564l22.68913,-9.07565z"/>
   <path stroke="null" fill="#3f3d56" transform="translate(-160.25 -159.325)" d="m1175.80799,1103.03471l7.56304,4.53782s28.73956,59.74803 21.93282,64.28584s-36.30253,14.36978 -36.30253,14.36978l6.80667,-83.19344z"/>
   <polygon stroke="null" fill="#3f3d56" points="843.1510212421417,897.8815097808838 825.3775837421417,897.5027256011963 821.219197511673,904.6875400543213 826.5127155780792,978.049783706665 853.7396442890167,984.0996494293213 843.1510212421417,897.8815097808838 "/>
   <path stroke="null" fill="#2f2e41" transform="translate(-160.25 -159.325)" d="m1118.95653,1006.06699l5.99808,-2.18113s-12.54138,-12.5414 -29.99042,-11.45079l4.90765,-4.90757s-11.99617,-4.36217 -22.90173,7.08862c-5.73283,6.01944 -12.36582,13.09495 -16.50078,21.06545l-6.42353,0l2.68094,5.36189l-9.38329,5.36188l9.63103,-0.96313a27.05638,27.05638 0 0 0 0.91094,13.88668l2.18105,5.99797s8.72455,-17.44887 8.72455,-19.63l0,5.45278s5.99808,-4.90749 5.99808,-8.17913l3.27166,3.81695l1.63582,-5.99808l20.1753,5.99808l-3.27166,-4.90748l12.5414,1.63583l-4.90765,-5.99808s14.17722,7.0886 14.7226,13.08669s4.28834,13.81666 4.28834,13.81666l4.53782,-5.29413s6.98685,-24.88084 -8.8262,-33.05997z"/>
   <ellipse stroke="null" fill="#ffb8b8" ry="6.80673" rx="2.64707" cy="827.92297" cx="911.97507"/>
   <path stroke="null" fill="#3f3d56" transform="translate(-160.25 -159.325)" d="m376.12156,1546.88023c16.12138,29.89774 50.33675,42.73229 50.33675,42.73229s8.07744,-35.63944 -8.04394,-65.53725s-50.33675,-42.73228 -50.33675,-42.73228s-8.07742,35.63944 8.04394,65.53723z"/>
   <path stroke="null" fill="#f83292" transform="translate(-160.25 -159.325)" d="m387.2024,1537.04407c29.10572,17.51097 40.31527,52.29258 40.31527,52.29258s-35.98018,6.39073 -65.08591,-11.12025s-40.31527,-52.29258 -40.31527,-52.29258s35.98017,-6.39072 65.08591,11.12025z"/>
   <path stroke="null" opacity="0.3" fill="#fff" transform="translate(-160.25 -159.325)" d="m688.57108,1093.31525s89.48958,-46.69698 151.75223,0s172.46753,4.41231 172.46753,4.41231"/>
   <circle stroke="null" fill="#fff" r="14.26852" cy="1347.55439" cx="643.15826"/>
  </g>
  <ellipse transform="rotate(38.8618 1283 255.833)" stroke="null" ry="43.30838" rx="41.70841" id="svg_7" cy="255.83334" cx="1283.00002" stroke-width="10" fill="#f2c1d9"/>
 </g>

</svg>